<svg xmlns="http://www.w3.org/2000/svg" viewBox="0 0 24 24" id="adidas">
  <path d="M23.5 18h-5.298a.5.5 0 0 1-.423-.233l-5.535-8.775a.499.499 0 0 1 .175-.701l3.888-2.225a.5.5 0 0 1 .671.167l6.945 11A.5.5 0 0 1 23.5 18zm-5.022-1h4.115l-6.205-9.828-3.02 1.728 5.11 8.1zm-3.463 1H9.721a.502.502 0 0 1-.423-.233L6.23 12.909a.499.499 0 0 1 .175-.701l3.892-2.229a.5.5 0 0 1 .671.167l4.47 7.086a.5.5 0 0 1-.423.768zm-5.019-1h4.112l-3.731-5.915-3.022 1.731L9.996 17zm-3.604 1H1.095a.5.5 0 0 1-.423-.233l-.595-.944a.5.5 0 0 1 .175-.701l3.892-2.224a.5.5 0 0 1 .671.167l2 3.168a.5.5 0 0 1-.423.767zm-5.021-1h4.115l-1.261-1.997-3.023 1.728.169.269z"></path>
</svg>